<?xml version="1.0" encoding="utf-8"?>
<!-- Generator: Adobe Illustrator 23.0.0, SVG Export Plug-In . SVG Version: 6.00 Build 0)  -->
<svg version="1.1" id="Layer_1" xmlns="http://www.w3.org/2000/svg" xmlns:xlink="http://www.w3.org/1999/xlink" x="0px" y="0px"
	 viewBox="0 0 75 61" style="enable-background:new 0 0 75 61;" xml:space="preserve">
<style type="text/css">
	.st0{fill:#3B6BB2;}
</style>
<g>
	<path class="st0" d="M52.51,59.94c0,0,5.34,0,5.34-5.35V6.42c0-5.35-5.34-5.35-5.34-5.35H28.47c0,0-5.34,0-5.34,5.35v48.17
		c0,5.35,5.34,5.35,5.34,5.35H52.51z M40.49,57.71c-1.48,0-2.67-1.2-2.67-2.67c0-1.48,1.2-2.67,2.67-2.67c1.48,0,2.67,1.2,2.67,2.67
		C43.16,56.51,41.96,57.71,40.49,57.71L40.49,57.71z M33.81,4.33c0-0.33,0.26-0.59,0.59-0.59h12.18c0.33,0,0.59,0.26,0.59,0.59v0.16
		c0,0.33-0.26,0.59-0.59,0.59H34.4c-0.32,0-0.59-0.26-0.59-0.59V4.33z M25.79,7.74h29.39v42.75H25.79V7.74z M25.79,7.74"/>
</g>
<g>
	<g>
		<path class="st0" d="M53.17,25.5c-0.12-1.39-0.77-2.65-1.84-3.54c-0.8-0.67-1.77-1.09-2.81-1.19c-1.73-0.18-3.42,0.51-4.54,1.83
			l-6.15,7.32c-0.9,1.07-1.32,2.42-1.2,3.81c0.12,1.39,0.78,2.64,1.84,3.54c0.8,0.67,1.77,1.09,2.81,1.19
			c1.73,0.18,3.42-0.51,4.54-1.83l6.15-7.32C52.87,28.24,53.29,26.89,53.17,25.5L53.17,25.5z M48.91,23.98
			c-0.13-0.04-1.23-0.38-2.31,0.91l-1.63,1.94c-0.19,0.23-0.48,0.33-0.76,0.31c-0.17-0.02-0.33-0.08-0.47-0.2
			c-0.37-0.31-0.41-0.86-0.11-1.22l1.63-1.94c1.93-2.3,4.17-1.45,4.27-1.41c0.45,0.18,0.67,0.68,0.49,1.13
			C49.85,23.93,49.35,24.14,48.91,23.98L48.91,23.98z M44.49,35.51c-0.74,0.89-1.88,1.34-3.03,1.22c-0.69-0.07-1.34-0.35-1.87-0.8
			c-0.71-0.6-1.15-1.43-1.23-2.36c-0.08-0.93,0.2-1.83,0.8-2.54l2.45-2.92c0.36-0.43,1.01-0.49,1.45-0.13l3.75,3.15
			c0.21,0.17,0.34,0.43,0.36,0.7c0.02,0.27-0.06,0.54-0.24,0.75L44.49,35.51z M44.49,35.51"/>
		<path class="st0" d="M39.26,25.19c0.35-2.93-1.74-5.6-4.68-5.95c-2.93-0.35-5.6,1.74-5.95,4.68c-0.35,2.93,1.74,5.59,4.68,5.94
			C36.24,30.22,38.91,28.13,39.26,25.19L39.26,25.19z M36.82,25.81c-0.01,0-0.02,0-0.02,0l-5.94-0.78c-0.48-0.06-0.81-0.5-0.75-0.98
			c0.06-0.47,0.48-0.81,0.97-0.75l5.94,0.78c0.48,0.06,0.81,0.5,0.75,0.97C37.71,25.53,37.29,25.86,36.82,25.81L36.82,25.81z
			 M36.82,25.81"/>
	</g>
</g>
</svg>
